# xmcd CD database file
#
# Track frame offsets:
#	150
#	10964
#	22432
#	37079
#	59756
#
# Disc length: 959 seconds
#
# Revision: 0
# Processed by: cddbd v1.5.1PL0 Copyright (c) Steve Scherf et al.
# Submitted via: CDex 1.51
#
DISCID=4803bd05
DTITLE=Carey Kotsionis - Magic Cowboy Boots (EP)
DYEAR=2003
DGENRE=Country
TTITLE0=Long, Long Time
TTITLE1=Makes Me So...
TTITLE2=Devil May Come
TTITLE3=Don't Ask Me
TTITLE4=Magic Cowboy Boots
EXTD=YEAR: 2003
EXTT0=
EXTT1=
EXTT2=
EXTT3=
EXTT4=
PLAYORDER=
